<svg width="59" height="59" viewBox="0 0 59 59" fill="none" xmlns="http://www.w3.org/2000/svg">
<g filter="url(#filter0_d_1_27203)">
<rect x="8.686" y="8.29309" width="42.0202" height="42.6205" rx="3.20154" fill="url(#paint0_linear_1_27203)" fill-opacity="0.1" shape-rendering="crispEdges"/>
<rect x="9.0862" y="8.69328" width="41.2198" height="41.8201" rx="2.80135" stroke="#0077CC" stroke-width="0.800385" shape-rendering="crispEdges"/>
</g>
<g clip-path="url(#clip0_1_27203)">
<path d="M41.6929 28.57C41.6902 27.7756 41.0546 27.0927 40.2003 27.0927L40.1864 27.0926C40.1267 27.0916 40.0731 27.0487 40.0561 26.9882C39.821 26.15 39.4847 25.3442 39.0547 24.5882C39.0185 24.5246 39.0265 24.4435 39.0786 24.392C39.0789 24.3917 39.0792 24.3914 39.0795 24.3911C39.3543 24.12 39.5059 23.7538 39.5066 23.36C39.5072 22.9616 39.3468 22.5735 39.0666 22.2951L37.2388 20.4801C37.2388 20.48 37.2388 20.48 37.2388 20.48C36.6625 19.9078 35.7166 19.8916 35.1426 20.4819C35.1343 20.4905 35.1258 20.4988 35.1176 20.5064C35.0792 20.5425 35.0153 20.5469 34.9623 20.5172C34.1992 20.0884 33.384 19.7541 32.5393 19.5234C32.4784 19.5068 32.4349 19.4534 32.4336 19.3935L32.4334 19.3774C32.428 18.5604 31.7604 17.8977 30.944 17.8977C30.9422 17.8977 30.9404 17.8977 30.9387 17.8977L28.3552 17.9068C27.9584 17.9081 27.5866 18.0647 27.3085 18.3477C27.0303 18.6307 26.88 19.0051 26.8854 19.3982L26.8853 19.413C26.8844 19.4728 26.8414 19.5265 26.7807 19.5435C25.9375 19.7801 25.1246 20.1202 24.3645 20.5543C24.3118 20.5843 24.248 20.5804 24.2091 20.5445C24.2004 20.5365 24.1919 20.5281 24.1838 20.52C23.9113 20.2438 23.5452 20.0912 23.1529 20.0906C23.152 20.0906 23.1512 20.0906 23.1504 20.0906C22.7544 20.0906 22.3672 20.2518 22.0879 20.5331L20.2728 22.3609C19.7048 22.9329 19.6865 23.8849 20.2746 24.4569C20.2769 24.4616 20.3674 24.535 20.3064 24.6438C19.8793 25.405 19.5462 26.2181 19.3163 27.0603C19.3004 27.1183 19.2468 27.1663 19.1702 27.1663C18.3514 27.1717 17.6876 27.8422 17.6905 28.661L17.6995 31.2333C17.7023 32.0508 18.3638 32.7142 19.1868 32.7142H19.1922C19.1969 32.7158 19.3044 32.705 19.3364 32.819C19.5727 33.6611 19.9122 34.4732 20.3457 35.2327C20.4064 35.3392 20.3151 35.4112 20.3127 35.4159C19.7226 35.9978 19.7605 36.9504 20.3258 37.5118L22.1536 39.3268C22.729 39.8981 23.6748 39.916 24.2498 39.3249C24.2993 39.2738 24.3557 39.2479 24.4299 39.2895C25.1931 39.7184 26.0085 40.0528 26.8534 40.2834C26.9141 40.3 26.9575 40.3533 26.9588 40.413C26.9628 40.4329 26.9193 41.003 27.3949 41.4769C27.6748 41.7558 28.0461 41.9092 28.4409 41.9092H28.4463L31.0148 41.9002C31.8323 41.8973 32.5017 41.2299 32.5069 40.4086L32.507 40.3942C32.5079 40.3341 32.5512 40.2802 32.6123 40.2631C33.455 40.0266 34.2676 39.6867 35.0274 39.2528C35.0805 39.2225 35.1447 39.2265 35.1835 39.2625C35.8636 39.8922 36.7432 39.8391 37.3045 39.2737L39.1196 37.4459C39.6886 36.8729 39.7048 35.9209 39.1179 35.35L39.117 35.3491C39.0651 35.2986 39.0543 35.2198 39.0896 35.1567C39.5152 34.3966 39.8467 33.5872 40.0763 32.7461C40.0928 32.6855 40.1461 32.6422 40.2068 32.6408C40.2225 32.6376 40.8095 32.6808 41.2871 32.1846C41.5602 31.9008 41.7032 31.5161 41.7019 31.1223L41.6929 28.57ZM40.1898 31.9376C39.8213 31.946 39.4955 32.2023 39.3976 32.5609C39.157 33.4424 38.8422 34.21 38.3721 34.9937C38.2182 35.2504 38.3175 35.5312 38.6274 35.8543C38.9221 36.1617 38.9145 36.6541 38.6204 36.9504L36.8054 38.7782C36.5522 39.0332 36.2363 39.0137 36.2411 39.0128C35.9484 39.0123 35.8011 38.8757 35.6615 38.7463C35.3955 38.5002 35.0005 38.4582 34.6786 38.642C33.9688 39.0474 33.2097 39.3649 32.4223 39.5858C32.0637 39.6865 31.8093 40.0146 31.8037 40.3832C31.7951 40.8815 31.4187 41.1953 31.0124 41.1968L28.4438 41.2058C28.0397 41.2036 27.6732 40.9091 27.6621 40.3972C27.6537 40.0286 27.3973 39.7028 27.0386 39.6048C26.2493 39.3893 25.4876 39.077 24.7745 38.6763C24.4644 38.502 24.0529 38.5175 23.7453 38.8347C23.4444 39.144 22.9472 39.1235 22.6493 38.8277L20.8215 37.0126C20.542 36.7351 20.4793 36.2557 20.8304 35.8929C21.0904 35.6244 21.1424 35.2095 20.9566 34.884C20.5516 34.1745 20.2344 33.4158 20.0137 32.6291C19.918 32.2881 19.6056 32.0107 19.1882 32.0107C18.758 32.0138 18.4044 31.6645 18.4029 31.2309L18.3939 28.6585C18.3924 28.2264 18.7427 27.8726 19.1729 27.8697C19.1736 27.8697 19.1785 27.8697 19.1791 27.8697C19.5596 27.8677 19.895 27.611 19.9948 27.2456C20.2097 26.4588 20.5209 25.6991 20.9199 24.9879C21.0995 24.6677 21.063 24.2421 20.765 23.9526C20.4597 23.6556 20.4778 23.1527 20.7719 22.8565L22.587 21.0287C22.7351 20.8795 22.9404 20.794 23.1503 20.794H23.1516C23.3547 20.7944 23.5433 20.8725 23.6832 21.0143C23.699 21.0304 23.7153 21.046 23.7316 21.0611C23.9974 21.3069 24.3918 21.3487 24.7133 21.1652C25.4234 20.7596 26.1829 20.4418 26.9707 20.2208C27.3287 20.1204 27.5829 19.7928 27.5887 19.423L27.5888 19.3922C27.5859 19.1846 27.6646 18.9887 27.8102 18.8406C27.9587 18.6896 28.1659 18.6108 28.3778 18.61L30.9411 18.6012H30.9538C31.3841 18.6012 31.728 18.9532 31.7299 19.3835C31.7299 19.3921 31.73 19.4008 31.7302 19.4094C31.7385 19.7782 31.995 20.1041 32.3539 20.2021C33.1432 20.4176 33.9048 20.7299 34.6177 21.1305C34.9354 21.309 35.3454 21.2832 35.6472 20.9721C35.9466 20.6643 36.4433 20.6814 36.7431 20.9792V20.9792L38.5709 22.7943C38.7189 22.9412 38.8035 23.147 38.8032 23.3589C38.8029 23.5634 38.7255 23.7522 38.5855 23.8903C38.5212 23.9538 38.4632 24.0225 38.4118 24.0962C38.2581 24.3165 38.2506 24.608 38.3883 24.8388C38.8369 25.5909 39.1406 26.3288 39.3789 27.1782C39.4793 27.5361 39.8067 27.7901 40.1741 27.7959C40.6917 27.8053 40.9881 28.1745 40.9895 28.5725L40.9985 31.1519C40.9999 31.5502 40.7044 31.9248 40.1898 31.9376Z" fill="url(#paint1_linear_1_27203)"/>
<path d="M29.6963 22.6614C25.703 22.6614 22.4542 25.9102 22.4542 29.9035C22.4542 33.8969 25.703 37.1457 29.6963 37.1457C33.6896 37.1457 36.9385 33.8969 36.9385 29.9035C36.9385 25.9102 33.6896 22.6614 29.6963 22.6614ZM29.6963 36.4422C26.0909 36.4422 23.1576 33.509 23.1576 29.9035C23.1576 26.2981 26.0909 23.3648 29.6963 23.3648C33.3018 23.3648 36.235 26.2981 36.235 29.9035C36.235 33.509 33.3018 36.4422 29.6963 36.4422Z" fill="url(#paint2_linear_1_27203)"/>
<path d="M33.7333 26.2646C33.4752 26.049 33.1486 25.947 32.8137 25.9769C32.4788 26.007 32.1756 26.1657 31.96 26.4238L28.2136 30.909L26.9315 29.5897C26.6972 29.3485 26.3829 29.2131 26.0467 29.2083C25.7107 29.2036 25.3925 29.3299 25.1514 29.5643C24.9102 29.7986 24.7748 30.1129 24.77 30.4491C24.7652 30.7853 24.8916 31.1032 25.126 31.3443L27.3816 33.6654C27.6172 33.9078 27.9463 34.0469 28.2843 34.0469C28.2999 34.0469 28.3155 34.0466 28.3317 34.046C28.6874 34.0326 29.0224 33.8682 29.2505 33.595L33.8925 28.0378C34.3374 27.5051 34.266 26.7096 33.7333 26.2646ZM33.3525 27.5869L28.7105 33.1441C28.6099 33.2647 28.4621 33.3372 28.3057 33.3431C28.1483 33.3486 27.9949 33.2873 27.886 33.1752L25.6304 30.8541C25.527 30.7478 25.4712 30.6075 25.4733 30.4592C25.4754 30.3108 25.5352 30.1722 25.6416 30.0688C25.746 29.9673 25.8831 29.9117 26.0285 29.9117C26.0312 29.9117 26.0339 29.9117 26.0366 29.9117C26.1849 29.9139 26.3236 29.9736 26.427 30.08L27.9811 31.6791C28.0506 31.7506 28.1473 31.7881 28.2466 31.7856C28.3462 31.7818 28.4394 31.736 28.5033 31.6595L32.5 26.8748C32.5951 26.7609 32.7288 26.6909 32.8766 26.6777C33.0245 26.6645 33.1685 26.7096 33.2823 26.8046C33.5174 27.0008 33.5488 27.3518 33.3525 27.5869Z" fill="url(#paint3_linear_1_27203)"/>
<path d="M34.8155 36.1375C33.3784 37.3191 31.5604 37.9698 29.6963 37.9698C25.2485 37.9698 21.6299 34.3513 21.6299 29.9035C21.6299 28.0396 22.2806 26.2216 23.462 24.7846C23.5853 24.6346 23.5637 24.4129 23.4136 24.2895C23.2635 24.1661 23.0419 24.1878 22.9186 24.3378C21.6339 25.9005 20.9265 27.8771 20.9265 29.9035C20.9265 34.7391 24.8606 38.6732 29.6963 38.6732C31.7229 38.6732 33.6996 37.9657 35.2623 36.6809C35.4124 36.5576 35.434 36.3359 35.3106 36.1858C35.1873 36.0358 34.9655 36.0141 34.8155 36.1375Z" fill="url(#paint4_linear_1_27203)"/>
<path d="M29.6964 21.1337C27.6694 21.1337 25.6924 21.8415 24.1295 23.1267C23.9795 23.2501 23.9579 23.4717 24.0813 23.6218C24.2046 23.7718 24.4262 23.7934 24.5764 23.6701C26.0137 22.4881 27.832 21.8371 29.6964 21.8371C34.1442 21.8371 37.7627 25.4557 37.7627 29.9035C37.7627 31.7675 37.112 33.5856 35.9304 35.0228C35.8071 35.1728 35.8287 35.3945 35.9787 35.5178C36.0442 35.5717 36.1233 35.5979 36.2019 35.5979C36.3035 35.5979 36.4042 35.5541 36.4738 35.4695C37.7586 33.9068 38.4661 31.9301 38.4661 29.9035C38.4661 25.0678 34.5321 21.1337 29.6964 21.1337Z" fill="url(#paint5_linear_1_27203)"/>
</g>
<defs>
<filter id="filter0_d_1_27203" x="0.682156" y="0.289242" width="58.0279" height="58.6282" filterUnits="userSpaceOnUse" color-interpolation-filters="sRGB">
<feFlood flood-opacity="0" result="BackgroundImageFix"/>
<feColorMatrix in="SourceAlpha" type="matrix" values="0 0 0 0 0 0 0 0 0 0 0 0 0 0 0 0 0 0 127 0" result="hardAlpha"/>
<feOffset/>
<feGaussianBlur stdDeviation="4.00192"/>
<feComposite in2="hardAlpha" operator="out"/>
<feColorMatrix type="matrix" values="0 0 0 0 0.670833 0 0 0 0 0.670833 0 0 0 0 0.670833 0 0 0 0.25 0"/>
<feBlend mode="normal" in2="BackgroundImageFix" result="effect1_dropShadow_1_27203"/>
<feBlend mode="normal" in="SourceGraphic" in2="effect1_dropShadow_1_27203" result="shape"/>
</filter>
<linearGradient id="paint0_linear_1_27203" x1="29.6961" y1="8.29309" x2="29.6961" y2="50.9136" gradientUnits="userSpaceOnUse">
<stop stop-color="#004B80"/>
<stop offset="1" stop-color="#000F19"/>
</linearGradient>
<linearGradient id="paint1_linear_1_27203" x1="29.6962" y1="17.8977" x2="29.6962" y2="41.9092" gradientUnits="userSpaceOnUse">
<stop stop-color="#1FA9FF"/>
<stop offset="1" stop-color="#3BD0FF"/>
</linearGradient>
<linearGradient id="paint2_linear_1_27203" x1="29.6963" y1="22.6614" x2="29.6963" y2="37.1457" gradientUnits="userSpaceOnUse">
<stop stop-color="#1FA9FF"/>
<stop offset="1" stop-color="#3BD0FF"/>
</linearGradient>
<linearGradient id="paint3_linear_1_27203" x1="29.4772" y1="25.9718" x2="29.4772" y2="34.0469" gradientUnits="userSpaceOnUse">
<stop stop-color="#1FA9FF"/>
<stop offset="1" stop-color="#3BD0FF"/>
</linearGradient>
<linearGradient id="paint4_linear_1_27203" x1="28.1586" y1="24.2095" x2="28.1586" y2="38.6732" gradientUnits="userSpaceOnUse">
<stop stop-color="#1FA9FF"/>
<stop offset="1" stop-color="#3BD0FF"/>
</linearGradient>
<linearGradient id="paint5_linear_1_27203" x1="31.2337" y1="21.1337" x2="31.2337" y2="35.5979" gradientUnits="userSpaceOnUse">
<stop stop-color="#1FA9FF"/>
<stop offset="1" stop-color="#3BD0FF"/>
</linearGradient>
<clipPath id="clip0_1_27203">
<rect width="24.0115" height="24.0115" fill="white" transform="translate(17.6903 17.8977)"/>
</clipPath>
</defs>
</svg>
