<svg width="32" height="33" viewBox="0 0 32 33" fill="none" xmlns="http://www.w3.org/2000/svg">
<path d="M16 4.98242H6.66667C5.95942 4.98242 5.28115 5.26337 4.78105 5.76347C4.28095 6.26357 4 6.94184 4 7.64909V26.3158C4 27.023 4.28095 27.7013 4.78105 28.2014C5.28115 28.7015 5.95942 28.9824 6.66667 28.9824H25.3333C26.0406 28.9824 26.7189 28.7015 27.219 28.2014C27.719 27.7013 28 27.023 28 26.3158V16.9824" stroke="#07F6F9" stroke-width="2" stroke-linecap="round" stroke-linejoin="round"/>
<path d="M24.4998 4.48248C25.0302 3.95205 25.7497 3.65405 26.4998 3.65405C27.2499 3.65405 27.9694 3.95205 28.4998 4.48248C29.0302 5.01291 29.3282 5.73233 29.3282 6.48248C29.3282 7.23263 29.0302 7.95205 28.4998 8.48248L16.4825 20.5011C16.1659 20.8175 15.7747 21.049 15.3451 21.1745L11.5145 22.2945C11.3997 22.3279 11.2781 22.3299 11.1623 22.3003C11.0466 22.2706 10.9409 22.2104 10.8564 22.1259C10.7719 22.0414 10.7117 21.9357 10.682 21.8199C10.6523 21.7042 10.6543 21.5825 10.6878 21.4678L11.8078 17.6371C11.9338 17.2079 12.1658 16.8172 12.4825 16.5011L24.4998 4.48248Z" stroke="#07F6F9" stroke-width="2" stroke-linecap="round" stroke-linejoin="round"/>
</svg>
