<svg width="16" height="16" viewBox="0 0 16 16" fill="none" xmlns="http://www.w3.org/2000/svg">
<path d="M7.25404 1.60352H2.14217C1.75482 1.60352 1.38332 1.7557 1.10942 2.0266C0.835518 2.2975 0.681641 2.66492 0.681641 3.04803V13.1596C0.681641 13.5427 0.835518 13.9101 1.10942 14.181C1.38332 14.4519 1.75482 14.6041 2.14217 14.6041H12.3659C12.7533 14.6041 13.1248 14.4519 13.3987 14.181C13.6726 13.9101 13.8264 13.5427 13.8264 13.1596V8.10382" stroke="#07F6F9" stroke-linecap="round" stroke-linejoin="round"/>
<path d="M11.9095 1.33254C12.2 1.04521 12.5941 0.883789 13.0049 0.883789C13.4158 0.883789 13.8098 1.04521 14.1003 1.33254C14.3908 1.61987 14.554 2.00958 14.554 2.41593C14.554 2.82227 14.3908 3.21198 14.1003 3.49931L7.51842 10.0097C7.34502 10.1811 7.1308 10.3065 6.8955 10.3745L4.79745 10.9812C4.73461 10.9993 4.668 11.0004 4.60459 10.9843C4.54118 10.9682 4.48331 10.9356 4.43702 10.8898C4.39074 10.8441 4.35775 10.7868 4.3415 10.7241C4.32526 10.6614 4.32636 10.5955 4.34468 10.5334L4.95811 8.45832C5.02714 8.22579 5.15421 8.01418 5.32762 7.84296L11.9095 1.33254Z" stroke="#07F6F9" stroke-linecap="round" stroke-linejoin="round"/>
</svg>
