<svg width="25" height="25" viewBox="0 0 25 25" fill="none" xmlns="http://www.w3.org/2000/svg">
<path d="M4.88965 4.1875C4.88965 3.65707 5.10036 3.14836 5.47543 2.77329C5.85051 2.39821 6.35922 2.1875 6.88965 2.1875H14.8896C15.1548 2.18756 15.4092 2.29295 15.5966 2.4805L20.5966 7.4805C20.7842 7.66799 20.8896 7.92231 20.8896 8.1875V20.1875C20.8896 20.7179 20.6789 21.2266 20.3039 21.6017C19.9288 21.9768 19.4201 22.1875 18.8896 22.1875H6.88965C6.35922 22.1875 5.85051 21.9768 5.47543 21.6017C5.10036 21.2266 4.88965 20.7179 4.88965 20.1875V4.1875ZM18.4756 8.1875L14.8896 4.6015V8.1875H18.4756ZM12.8896 4.1875H6.88965V20.1875H18.8896V10.1875H13.8896C13.6244 10.1875 13.3701 10.0821 13.1825 9.89461C12.995 9.70707 12.8896 9.45272 12.8896 9.1875V4.1875ZM8.88965 13.1875C8.88965 12.9223 8.99501 12.6679 9.18254 12.4804C9.37008 12.2929 9.62443 12.1875 9.88965 12.1875H15.8896C16.1549 12.1875 16.4092 12.2929 16.5968 12.4804C16.7843 12.6679 16.8896 12.9223 16.8896 13.1875C16.8896 13.4527 16.7843 13.7071 16.5968 13.8946C16.4092 14.0821 16.1549 14.1875 15.8896 14.1875H9.88965C9.62443 14.1875 9.37008 14.0821 9.18254 13.8946C8.99501 13.7071 8.88965 13.4527 8.88965 13.1875ZM8.88965 17.1875C8.88965 16.9223 8.99501 16.6679 9.18254 16.4804C9.37008 16.2929 9.62443 16.1875 9.88965 16.1875H15.8896C16.1549 16.1875 16.4092 16.2929 16.5968 16.4804C16.7843 16.6679 16.8896 16.9223 16.8896 17.1875C16.8896 17.4527 16.7843 17.7071 16.5968 17.8946C16.4092 18.0821 16.1549 18.1875 15.8896 18.1875H9.88965C9.62443 18.1875 9.37008 18.0821 9.18254 17.8946C8.99501 17.7071 8.88965 17.4527 8.88965 17.1875Z" fill="#07F6F9"/>
</svg>
