<svg width="92" height="41" viewBox="0 0 92 41" fill="none" xmlns="http://www.w3.org/2000/svg">
<path fill-rule="evenodd" clip-rule="evenodd" d="M20.4999 3.8335C29.7049 3.8335 37.1666 11.2952 37.1666 20.5002C37.1723 24.3466 35.8421 28.0757 33.4033 31.0502L33.4366 31.0868L33.2166 31.2735C31.6535 33.122 29.7057 34.6071 27.5093 35.625C25.3129 36.6429 22.9208 37.1691 20.4999 37.1668C15.5833 37.1668 11.1666 35.0385 8.1166 31.6552L7.78327 31.2718L7.56327 31.0885L7.5966 31.0485C5.15811 28.0745 3.82791 24.3461 3.83327 20.5002C3.83327 11.2952 11.2949 3.8335 20.4999 3.8335ZM20.4999 28.8335C17.3999 28.8335 14.5983 29.8202 12.5116 31.1768C14.8159 32.9051 17.6195 33.8375 20.4999 33.8335C23.3803 33.8375 26.184 32.9051 28.4883 31.1768C26.1038 29.6492 23.3318 28.8361 20.4999 28.8335ZM20.4999 7.16683C17.9908 7.16676 15.5326 7.87469 13.4078 9.20925C11.283 10.5438 9.57794 12.4508 8.48853 14.7111C7.39913 16.9714 6.96961 19.4932 7.24935 21.9867C7.5291 24.4802 8.50675 26.8441 10.0699 28.8068C12.7716 26.8685 16.4583 25.5002 20.4999 25.5002C24.5416 25.5002 28.2283 26.8685 30.9299 28.8068C32.4931 26.8441 33.4708 24.4802 33.7505 21.9867C34.0303 19.4932 33.6007 16.9714 32.5113 14.7111C31.4219 12.4508 29.7168 10.5438 27.5921 9.20925C25.4673 7.87469 23.0091 7.16676 20.4999 7.16683ZM20.4999 10.5002C22.268 10.5002 23.9637 11.2025 25.214 12.4528C26.4642 13.703 27.1666 15.3987 27.1666 17.1668C27.1666 18.9349 26.4642 20.6306 25.214 21.8809C23.9637 23.1311 22.268 23.8335 20.4999 23.8335C18.7318 23.8335 17.0361 23.1311 15.7859 21.8809C14.5356 20.6306 13.8333 18.9349 13.8333 17.1668C13.8333 15.3987 14.5356 13.703 15.7859 12.4528C17.0361 11.2025 18.7318 10.5002 20.4999 10.5002ZM20.4999 13.8335C19.6159 13.8335 18.768 14.1847 18.1429 14.8098C17.5178 15.4349 17.1666 16.2828 17.1666 17.1668C17.1666 18.0509 17.5178 18.8987 18.1429 19.5239C18.768 20.149 19.6159 20.5002 20.4999 20.5002C21.384 20.5002 22.2318 20.149 22.857 19.5239C23.4821 18.8987 23.8333 18.0509 23.8333 17.1668C23.8333 16.2828 23.4821 15.4349 22.857 14.8098C22.2318 14.1847 21.384 13.8335 20.4999 13.8335Z" fill="#DBE1F5"/>
<path fill-rule="evenodd" clip-rule="evenodd" d="M46.4999 3.8335C55.7049 3.8335 63.1666 11.2952 63.1666 20.5002C63.1723 24.3466 61.8421 28.0757 59.4033 31.0502L59.4366 31.0868L59.2166 31.2735C57.6535 33.122 55.7057 34.6071 53.5093 35.625C51.3129 36.6429 48.9208 37.1691 46.4999 37.1668C41.5833 37.1668 37.1666 35.0385 34.1166 31.6552L33.7833 31.2718L33.5633 31.0885L33.5966 31.0485C31.1581 28.0745 29.8279 24.3461 29.8333 20.5002C29.8333 11.2952 37.2949 3.8335 46.4999 3.8335ZM46.4999 28.8335C43.3999 28.8335 40.5983 29.8202 38.5116 31.1768C40.8159 32.9051 43.6195 33.8375 46.4999 33.8335C49.3803 33.8375 52.184 32.9051 54.4883 31.1768C52.1038 29.6492 49.3318 28.8361 46.4999 28.8335ZM46.4999 7.16683C43.9908 7.16676 41.5326 7.87469 39.4078 9.20925C37.283 10.5438 35.5779 12.4508 34.4885 14.7111C33.3991 16.9714 32.9696 19.4932 33.2494 21.9867C33.5291 24.4802 34.5067 26.8441 36.0699 28.8068C38.7716 26.8685 42.4583 25.5002 46.4999 25.5002C50.5416 25.5002 54.2283 26.8685 56.9299 28.8068C58.4931 26.8441 59.4708 24.4802 59.7505 21.9867C60.0303 19.4932 59.6007 16.9714 58.5113 14.7111C57.4219 12.4508 55.7168 10.5438 53.5921 9.20925C51.4673 7.87469 49.0091 7.16676 46.4999 7.16683ZM46.4999 10.5002C48.268 10.5002 49.9637 11.2025 51.214 12.4528C52.4642 13.703 53.1666 15.3987 53.1666 17.1668C53.1666 18.9349 52.4642 20.6306 51.214 21.8809C49.9637 23.1311 48.268 23.8335 46.4999 23.8335C44.7318 23.8335 43.0361 23.1311 41.7859 21.8809C40.5356 20.6306 39.8333 18.9349 39.8333 17.1668C39.8333 15.3987 40.5356 13.703 41.7859 12.4528C43.0361 11.2025 44.7318 10.5002 46.4999 10.5002ZM46.4999 13.8335C45.6159 13.8335 44.768 14.1847 44.1429 14.8098C43.5178 15.4349 43.1666 16.2828 43.1666 17.1668C43.1666 18.0509 43.5178 18.8987 44.1429 19.5239C44.768 20.149 45.6159 20.5002 46.4999 20.5002C47.384 20.5002 48.2318 20.149 48.857 19.5239C49.4821 18.8987 49.8333 18.0509 49.8333 17.1668C49.8333 16.2828 49.4821 15.4349 48.857 14.8098C48.2318 14.1847 47.384 13.8335 46.4999 13.8335Z" fill="#DBE1F5"/>
<path fill-rule="evenodd" clip-rule="evenodd" d="M71.4999 3.8335C80.7049 3.8335 88.1666 11.2952 88.1666 20.5002C88.1723 24.3466 86.8421 28.0757 84.4033 31.0502L84.4366 31.0868L84.2166 31.2735C82.6535 33.122 80.7057 34.6071 78.5093 35.625C76.3129 36.6429 73.9208 37.1691 71.4999 37.1668C66.5833 37.1668 62.1666 35.0385 59.1166 31.6552L58.7833 31.2718L58.5633 31.0885L58.5966 31.0485C56.1581 28.0745 54.8279 24.3461 54.8333 20.5002C54.8333 11.2952 62.2949 3.8335 71.4999 3.8335ZM71.4999 28.8335C68.3999 28.8335 65.5983 29.8202 63.5116 31.1768C65.8159 32.9051 68.6195 33.8375 71.4999 33.8335C74.3803 33.8375 77.184 32.9051 79.4883 31.1768C77.1038 29.6492 74.3318 28.8361 71.4999 28.8335ZM71.4999 7.16683C68.9908 7.16676 66.5326 7.87469 64.4078 9.20925C62.283 10.5438 60.5779 12.4508 59.4885 14.7111C58.3991 16.9714 57.9696 19.4932 58.2494 21.9867C58.5291 24.4802 59.5067 26.8441 61.0699 28.8068C63.7716 26.8685 67.4583 25.5002 71.4999 25.5002C75.5416 25.5002 79.2283 26.8685 81.9299 28.8068C83.4931 26.8441 84.4708 24.4802 84.7505 21.9867C85.0303 19.4932 84.6007 16.9714 83.5113 14.7111C82.4219 12.4508 80.7168 10.5438 78.5921 9.20925C76.4673 7.87469 74.0091 7.16676 71.4999 7.16683ZM71.4999 10.5002C73.268 10.5002 74.9637 11.2025 76.214 12.4528C77.4642 13.703 78.1666 15.3987 78.1666 17.1668C78.1666 18.9349 77.4642 20.6306 76.214 21.8809C74.9637 23.1311 73.268 23.8335 71.4999 23.8335C69.7318 23.8335 68.0361 23.1311 66.7859 21.8809C65.5356 20.6306 64.8333 18.9349 64.8333 17.1668C64.8333 15.3987 65.5356 13.703 66.7859 12.4528C68.0361 11.2025 69.7318 10.5002 71.4999 10.5002ZM71.4999 13.8335C70.6159 13.8335 69.768 14.1847 69.1429 14.8098C68.5178 15.4349 68.1666 16.2828 68.1666 17.1668C68.1666 18.0509 68.5178 18.8987 69.1429 19.5239C69.768 20.149 70.6159 20.5002 71.4999 20.5002C72.384 20.5002 73.2318 20.149 73.857 19.5239C74.4821 18.8987 74.8333 18.0509 74.8333 17.1668C74.8333 16.2828 74.4821 15.4349 73.857 14.8098C73.2318 14.1847 72.384 13.8335 71.4999 13.8335Z" fill="#DBE1F5"/>
</svg>
