<svg width="324" height="64" viewBox="0 0 324 64" fill="none" xmlns="http://www.w3.org/2000/svg">
<rect x="143.566" y="0.342773" width="66.4004" height="17.8423" rx="5.2177" fill="url(#paint0_radial_39_2213)" fill-opacity="0.2"/>
<rect x="143.566" y="0.342773" width="66.4004" height="17.8423" rx="5.2177" stroke="white" stroke-width="0.5"/>
<path d="M156.958 12.7639V4.8109H158.612V7.80105H158.663C158.735 7.64054 158.84 7.47744 158.977 7.31175C159.117 7.14347 159.298 7.00367 159.521 6.89235C159.746 6.77844 160.026 6.72149 160.36 6.72149C160.795 6.72149 161.196 6.8354 161.563 7.06322C161.931 7.28845 162.225 7.62889 162.445 8.08453C162.665 8.53758 162.775 9.10584 162.775 9.7893C162.775 10.4546 162.668 11.0164 162.453 11.4747C162.24 11.9303 161.95 12.2759 161.583 12.5115C161.218 12.7445 160.809 12.861 160.356 12.861C160.035 12.861 159.762 12.8079 159.536 12.7018C159.314 12.5956 159.131 12.4623 158.989 12.3018C158.846 12.1387 158.738 11.9743 158.663 11.8086H158.589V12.7639H156.958ZM158.577 9.78153C158.577 10.1362 158.626 10.4456 158.725 10.7096C158.823 10.9737 158.966 11.1795 159.152 11.3271C159.338 11.4721 159.565 11.5446 159.831 11.5446C160.101 11.5446 160.329 11.4708 160.515 11.3232C160.701 11.1731 160.842 10.9659 160.938 10.7019C161.037 10.4352 161.086 10.1284 161.086 9.78153C161.086 9.43721 161.038 9.13432 160.942 8.87284C160.846 8.61136 160.705 8.40684 160.519 8.25928C160.332 8.11171 160.103 8.03793 159.831 8.03793C159.562 8.03793 159.334 8.10912 159.148 8.25151C158.964 8.3939 158.823 8.59583 158.725 8.85731C158.626 9.11878 158.577 9.42686 158.577 9.78153ZM166.597 12.8804C165.984 12.8804 165.455 12.7561 165.013 12.5076C164.573 12.2565 164.234 11.9018 163.995 11.4436C163.757 10.9828 163.638 10.4378 163.638 9.80872C163.638 9.19516 163.757 8.65667 163.995 8.19326C164.234 7.72985 164.569 7.36871 165.001 7.10982C165.436 6.85093 165.946 6.72149 166.531 6.72149C166.925 6.72149 167.291 6.78492 167.63 6.91177C167.972 7.03604 168.27 7.22373 168.523 7.47485C168.78 7.72597 168.979 8.04181 169.121 8.42238C169.264 8.80035 169.335 9.24305 169.335 9.75047V10.2048H164.298V9.17962H167.778C167.778 8.94145 167.726 8.73045 167.622 8.54664C167.519 8.36283 167.375 8.21915 167.191 8.1156C167.01 8.00945 166.799 7.95638 166.558 7.95638C166.307 7.95638 166.085 8.01463 165.89 8.13113C165.699 8.24504 165.549 8.39908 165.44 8.59324C165.331 8.78482 165.276 8.9984 165.273 9.23399V10.2087C165.273 10.5038 165.327 10.7588 165.436 10.9737C165.547 11.1886 165.704 11.3543 165.906 11.4708C166.108 11.5873 166.347 11.6455 166.624 11.6455C166.808 11.6455 166.976 11.6196 167.129 11.5679C167.282 11.5161 167.413 11.4384 167.521 11.3349C167.63 11.2313 167.713 11.1044 167.77 10.9543L169.3 11.0553C169.222 11.4229 169.063 11.7439 168.822 12.0183C168.584 12.2902 168.276 12.5024 167.898 12.6552C167.523 12.8053 167.089 12.8804 166.597 12.8804ZM172.069 9.31554V12.7639H170.414V6.79915H171.991V7.85153H172.061C172.193 7.50462 172.414 7.2302 172.725 7.02827C173.036 6.82375 173.412 6.72149 173.855 6.72149C174.269 6.72149 174.63 6.8121 174.939 6.99332C175.247 7.17454 175.486 7.43343 175.657 7.76998C175.828 8.10395 175.913 8.50263 175.913 8.96604V12.7639H174.259V9.26117C174.262 8.89614 174.168 8.61136 173.979 8.40684C173.79 8.19973 173.53 8.09618 173.199 8.09618C172.976 8.09618 172.779 8.14407 172.609 8.23986C172.44 8.33565 172.308 8.47545 172.212 8.65926C172.119 8.84048 172.071 9.05924 172.069 9.31554ZM180.39 6.79915V8.04181H176.798V6.79915H180.39ZM177.613 5.3701H179.267V10.931C179.267 11.0837 179.291 11.2028 179.337 11.2883C179.384 11.3711 179.449 11.4294 179.532 11.463C179.617 11.4967 179.715 11.5135 179.827 11.5135C179.904 11.5135 179.982 11.507 180.06 11.4941C180.137 11.4785 180.197 11.4669 180.238 11.4591L180.498 12.6901C180.416 12.716 180.299 12.7458 180.149 12.7794C179.999 12.8157 179.816 12.8377 179.601 12.8455C179.203 12.861 178.853 12.8079 178.553 12.6862C178.255 12.5646 178.023 12.3756 177.858 12.1193C177.692 11.863 177.611 11.5394 177.613 11.1485V5.3701ZM183.25 4.8109V12.7639H181.595V4.8109H183.25ZM187.293 12.8804C186.68 12.8804 186.152 12.7561 185.709 12.5076C185.269 12.2565 184.93 11.9018 184.691 11.4436C184.453 10.9828 184.334 10.4378 184.334 9.80872C184.334 9.19516 184.453 8.65667 184.691 8.19326C184.93 7.72985 185.265 7.36871 185.697 7.10982C186.132 6.85093 186.642 6.72149 187.227 6.72149C187.621 6.72149 187.987 6.78492 188.326 6.91177C188.668 7.03604 188.966 7.22373 189.219 7.47485C189.476 7.72597 189.675 8.04181 189.817 8.42238C189.96 8.80035 190.031 9.24305 190.031 9.75047V10.2048H184.994V9.17962H188.474C188.474 8.94145 188.422 8.73045 188.318 8.54664C188.215 8.36283 188.071 8.21915 187.887 8.1156C187.706 8.00945 187.495 7.95638 187.254 7.95638C187.003 7.95638 186.781 8.01463 186.587 8.13113C186.395 8.24504 186.245 8.39908 186.136 8.59324C186.027 8.78482 185.972 8.9984 185.969 9.23399V10.2087C185.969 10.5038 186.023 10.7588 186.132 10.9737C186.243 11.1886 186.4 11.3543 186.602 11.4708C186.804 11.5873 187.043 11.6455 187.32 11.6455C187.504 11.6455 187.673 11.6196 187.825 11.5679C187.978 11.5161 188.109 11.4384 188.217 11.3349C188.326 11.2313 188.409 11.1044 188.466 10.9543L189.996 11.0553C189.918 11.4229 189.759 11.7439 189.518 12.0183C189.28 12.2902 188.972 12.5024 188.594 12.6552C188.219 12.8053 187.785 12.8804 187.293 12.8804ZM191.972 15.0007C191.762 15.0007 191.565 14.9839 191.381 14.9502C191.2 14.9192 191.05 14.879 190.931 14.8298L191.304 13.5949C191.498 13.6545 191.673 13.6868 191.828 13.692C191.986 13.6972 192.122 13.661 192.236 13.5833C192.352 13.5056 192.447 13.3736 192.519 13.1872L192.616 12.9348L190.477 6.79915H192.216L193.451 11.1795H193.513L194.76 6.79915H196.511L194.193 13.4085C194.082 13.7296 193.93 14.0092 193.739 14.2473C193.55 14.4881 193.31 14.6732 193.02 14.8027C192.73 14.9347 192.381 15.0007 191.972 15.0007Z" fill="white"/>
<rect x="145.479" y="45.8374" width="62.5776" height="17.8423" rx="5.2177" fill="url(#paint1_radial_39_2213)" fill-opacity="0.2"/>
<rect x="145.479" y="45.8374" width="62.5776" height="17.8423" rx="5.2177" stroke="white" stroke-width="0.5"/>
<path d="M162.122 58.375C161.519 58.375 160.997 58.2469 160.557 57.9906C160.12 57.7317 159.782 57.3719 159.544 56.911C159.306 56.4476 159.186 55.9104 159.186 55.2995C159.186 54.6833 159.306 54.1448 159.544 53.684C159.782 53.2206 160.12 52.8607 160.557 52.6044C160.997 52.3456 161.519 52.2161 162.122 52.2161C162.725 52.2161 163.246 52.3456 163.683 52.6044C164.123 52.8607 164.463 53.2206 164.701 53.684C164.939 54.1448 165.058 54.6833 165.058 55.2995C165.058 55.9104 164.939 56.4476 164.701 56.911C164.463 57.3719 164.123 57.7317 163.683 57.9906C163.246 58.2469 162.725 58.375 162.122 58.375ZM162.13 57.0936C162.404 57.0936 162.634 57.0159 162.817 56.8606C163.001 56.7026 163.14 56.4878 163.233 56.2159C163.329 55.9441 163.377 55.6347 163.377 55.2878C163.377 54.9409 163.329 54.6315 163.233 54.3597C163.14 54.0879 163.001 53.873 162.817 53.7151C162.634 53.5572 162.404 53.4782 162.13 53.4782C161.853 53.4782 161.62 53.5572 161.431 53.7151C161.245 53.873 161.104 54.0879 161.008 54.3597C160.915 54.6315 160.868 54.9409 160.868 55.2878C160.868 55.6347 160.915 55.9441 161.008 56.2159C161.104 56.4878 161.245 56.7026 161.431 56.8606C161.62 57.0159 161.853 57.0936 162.13 57.0936ZM167.835 58.3712C167.454 58.3712 167.115 58.3051 166.817 58.1731C166.519 58.0385 166.284 57.8404 166.11 57.579C165.94 57.3149 165.854 56.9861 165.854 56.5926C165.854 56.2612 165.915 55.9829 166.037 55.7577C166.158 55.5325 166.324 55.3512 166.534 55.214C166.743 55.0768 166.982 54.9733 167.248 54.9034C167.517 54.8335 167.8 54.7843 168.095 54.7558C168.442 54.7196 168.721 54.6859 168.934 54.6548C169.146 54.6212 169.3 54.572 169.396 54.5073C169.491 54.4425 169.539 54.3468 169.539 54.2199V54.1966C169.539 53.9507 169.462 53.7604 169.306 53.6258C169.154 53.4911 168.936 53.4238 168.654 53.4238C168.356 53.4238 168.119 53.4898 167.943 53.6219C167.767 53.7513 167.651 53.9144 167.594 54.1112L166.064 53.9869C166.141 53.6245 166.294 53.3112 166.522 53.0471C166.75 52.7805 167.044 52.576 167.404 52.4336C167.766 52.2886 168.185 52.2161 168.662 52.2161C168.993 52.2161 169.31 52.2549 169.613 52.3326C169.919 52.4103 170.189 52.5307 170.425 52.6938C170.663 52.8569 170.851 53.0666 170.988 53.3229C171.125 53.5766 171.194 53.8808 171.194 54.2354V58.2585H169.625V57.4314H169.578C169.482 57.6178 169.354 57.7822 169.194 57.9246C169.033 58.0644 168.84 58.1744 168.615 58.2547C168.39 58.3323 168.13 58.3712 167.835 58.3712ZM168.308 57.2295C168.552 57.2295 168.767 57.1816 168.953 57.0858C169.139 56.9874 169.286 56.8554 169.392 56.6897C169.498 56.524 169.551 56.3363 169.551 56.1266V55.4936C169.499 55.5273 169.428 55.5584 169.337 55.5868C169.249 55.6127 169.15 55.6373 169.038 55.6606C168.927 55.6813 168.816 55.7007 168.704 55.7189C168.593 55.7344 168.492 55.7486 168.402 55.7616C168.207 55.7901 168.038 55.8354 167.893 55.8975C167.748 55.9596 167.635 56.0438 167.555 56.1499C167.475 56.2535 167.435 56.3829 167.435 56.5382C167.435 56.7635 167.516 56.9356 167.679 57.0547C167.845 57.1712 168.055 57.2295 168.308 57.2295ZM173.976 56.5421L173.98 54.5578H174.221L176.131 52.2938H178.03L175.463 55.2917H175.071L173.976 56.5421ZM172.477 58.2585V50.3055H174.131V58.2585H172.477ZM176.205 58.2585L174.45 55.6606L175.553 54.4917L178.143 58.2585H176.205ZM180.496 50.3055V58.2585H178.842V50.3055H180.496ZM184.54 58.375C183.926 58.375 183.398 58.2508 182.955 58.0022C182.515 57.7511 182.176 57.3965 181.938 56.9382C181.7 56.4774 181.581 55.9324 181.581 55.3033C181.581 54.6898 181.7 54.1513 181.938 53.6879C182.176 53.2245 182.511 52.8633 182.944 52.6044C183.379 52.3456 183.889 52.2161 184.474 52.2161C184.867 52.2161 185.233 52.2795 185.573 52.4064C185.914 52.5307 186.212 52.7184 186.466 52.9695C186.722 53.2206 186.921 53.5364 187.064 53.917C187.206 54.295 187.277 54.7377 187.277 55.2451V55.6994H182.241V54.6743H185.72C185.72 54.4361 185.668 54.2251 185.565 54.0413C185.461 53.8575 185.318 53.7138 185.134 53.6102C184.953 53.5041 184.742 53.451 184.501 53.451C184.25 53.451 184.027 53.5093 183.833 53.6258C183.641 53.7397 183.491 53.8937 183.382 54.0879C183.274 54.2794 183.218 54.493 183.215 54.7286V55.7033C183.215 55.9985 183.27 56.2535 183.379 56.4683C183.49 56.6832 183.646 56.8489 183.848 56.9654C184.05 57.0819 184.29 57.1402 184.567 57.1402C184.751 57.1402 184.919 57.1143 185.072 57.0625C185.224 57.0107 185.355 56.933 185.464 56.8295C185.573 56.7259 185.655 56.5991 185.712 56.4489L187.242 56.5499C187.165 56.9175 187.006 57.2385 186.765 57.5129C186.527 57.7848 186.219 57.9971 185.841 58.1498C185.465 58.3 185.032 58.375 184.54 58.375ZM189.218 60.4953C189.008 60.4953 188.812 60.4785 188.628 60.4448C188.447 60.4138 188.296 60.3737 188.177 60.3245L188.55 59.0896C188.744 59.1491 188.919 59.1815 189.074 59.1867C189.232 59.1918 189.368 59.1556 189.482 59.0779C189.599 59.0003 189.693 58.8682 189.766 58.6818L189.863 58.4294L187.723 52.2938H189.463L190.698 56.6742H190.76L192.006 52.2938H193.758L191.439 58.9032C191.328 59.2242 191.177 59.5038 190.985 59.742C190.796 59.9827 190.557 60.1678 190.267 60.2973C189.977 60.4293 189.627 60.4953 189.218 60.4953Z" fill="white"/>
<rect x="1.12988" y="0.342773" width="67.834" height="17.8423" rx="5.2177" fill="url(#paint2_radial_39_2213)" fill-opacity="0.2"/>
<rect x="1.12988" y="0.342773" width="67.834" height="17.8423" rx="5.2177" stroke="white" stroke-width="0.5"/>
<path d="M18.6699 8.50004L17.1554 8.59324C17.1295 8.4638 17.0739 8.3473 16.9884 8.24374C16.903 8.1376 16.7904 8.05346 16.6506 7.99133C16.5134 7.92661 16.349 7.89425 16.1574 7.89425C15.9011 7.89425 15.6849 7.94861 15.5089 8.05735C15.3328 8.16349 15.2448 8.30588 15.2448 8.48451C15.2448 8.6269 15.3018 8.74728 15.4157 8.84566C15.5296 8.94403 15.7251 9.023 16.0021 9.08254L17.0816 9.3C17.6615 9.41909 18.0939 9.61067 18.3787 9.87473C18.6634 10.1388 18.8058 10.4857 18.8058 10.9155C18.8058 11.3064 18.6906 11.6494 18.4602 11.9445C18.2324 12.2397 17.9191 12.4701 17.5204 12.6358C17.1243 12.7989 16.6674 12.8804 16.1496 12.8804C15.36 12.8804 14.7309 12.716 14.2624 12.3872C13.7964 12.0559 13.5232 11.6054 13.443 11.0358L15.0701 10.9504C15.1193 11.1912 15.2384 11.375 15.4273 11.5018C15.6163 11.6261 15.8584 11.6882 16.1535 11.6882C16.4435 11.6882 16.6765 11.6326 16.8525 11.5213C17.0311 11.4073 17.1218 11.2611 17.1243 11.0824C17.1218 10.9323 17.0583 10.8093 16.9341 10.7135C16.8098 10.6152 16.6182 10.5401 16.3593 10.4883L15.3264 10.2825C14.7439 10.166 14.3102 9.96405 14.0255 9.67669C13.7433 9.38932 13.6022 9.023 13.6022 8.57771C13.6022 8.19456 13.7057 7.86447 13.9129 7.58747C14.1226 7.31046 14.4164 7.09687 14.7944 6.94672C15.1749 6.79657 15.6202 6.72149 16.1302 6.72149C16.8836 6.72149 17.4764 6.8807 17.9088 7.19913C18.3437 7.51757 18.5974 7.9512 18.6699 8.50004ZM22.5658 12.8804C21.9523 12.8804 21.4241 12.7561 20.9814 12.5076C20.5413 12.2565 20.2022 11.9018 19.964 11.4436C19.7258 10.9828 19.6068 10.4378 19.6068 9.80872C19.6068 9.19516 19.7258 8.65667 19.964 8.19326C20.2022 7.72985 20.5375 7.36871 20.9698 7.10982C21.4047 6.85093 21.9147 6.72149 22.4998 6.72149C22.8933 6.72149 23.2597 6.78492 23.5988 6.91177C23.9405 7.03604 24.2382 7.22373 24.492 7.47485C24.7483 7.72597 24.9476 8.04181 25.09 8.42238C25.2324 8.80035 25.3036 9.24305 25.3036 9.75047V10.2048H20.2669V9.17962H23.7464C23.7464 8.94145 23.6946 8.73045 23.591 8.54664C23.4875 8.36283 23.3438 8.21915 23.16 8.1156C22.9788 8.00945 22.7678 7.95638 22.527 7.95638C22.2759 7.95638 22.0532 8.01463 21.8591 8.13113C21.6675 8.24504 21.5173 8.39908 21.4086 8.59324C21.2999 8.78482 21.2442 8.9984 21.2416 9.23399V10.2087C21.2416 10.5038 21.296 10.7588 21.4047 10.9737C21.516 11.1886 21.6727 11.3543 21.8746 11.4708C22.0765 11.5873 22.316 11.6455 22.593 11.6455C22.7768 11.6455 22.9451 11.6196 23.0978 11.5679C23.2506 11.5161 23.3813 11.4384 23.4901 11.3349C23.5988 11.2313 23.6816 11.1044 23.7386 10.9543L25.2686 11.0553C25.191 11.4229 25.0317 11.7439 24.791 12.0183C24.5528 12.2902 24.2447 12.5024 23.8667 12.6552C23.4914 12.8053 23.0577 12.8804 22.5658 12.8804ZM28.0374 9.31554V12.7639H26.3831V6.79915H27.9598V7.85153H28.0297C28.1617 7.50462 28.383 7.2302 28.6937 7.02827C29.0044 6.82375 29.381 6.72149 29.8237 6.72149C30.238 6.72149 30.5991 6.8121 30.9072 6.99332C31.2153 7.17454 31.4547 7.43343 31.6256 7.76998C31.7965 8.10395 31.8819 8.50263 31.8819 8.96604V12.7639H30.2276V9.26117C30.2302 8.89614 30.137 8.61136 29.948 8.40684C29.759 8.19973 29.4988 8.09618 29.1675 8.09618C28.9448 8.09618 28.7481 8.14407 28.5772 8.23986C28.4089 8.33565 28.2769 8.47545 28.1811 8.65926C28.0879 8.84048 28.04 9.05924 28.0374 9.31554ZM36.3584 6.79915V8.04181H32.7663V6.79915H36.3584ZM33.5818 5.3701H35.2361V10.931C35.2361 11.0837 35.2594 11.2028 35.306 11.2883C35.3526 11.3711 35.4173 11.4294 35.5002 11.463C35.5856 11.4967 35.684 11.5135 35.7953 11.5135C35.873 11.5135 35.9506 11.507 36.0283 11.4941C36.106 11.4785 36.1655 11.4669 36.2069 11.4591L36.4671 12.6901C36.3843 12.716 36.2678 12.7458 36.1176 12.7794C35.9675 12.8157 35.7849 12.8377 35.5701 12.8455C35.1714 12.861 34.8219 12.8079 34.5216 12.6862C34.2239 12.5646 33.9921 12.3756 33.8265 12.1193C33.6608 11.863 33.5792 11.5394 33.5818 11.1485V5.3701ZM37.436 12.7639V6.79915H39.0903V12.7639H37.436ZM38.267 6.03026C38.0211 6.03026 37.8101 5.94871 37.634 5.78561C37.4606 5.61992 37.3739 5.42187 37.3739 5.19146C37.3739 4.96364 37.4606 4.76818 37.634 4.60508C37.8101 4.4394 38.0211 4.35655 38.267 4.35655C38.513 4.35655 38.7227 4.4394 38.8961 4.60508C39.0722 4.76818 39.1602 4.96364 39.1602 5.19146C39.1602 5.42187 39.0722 5.61992 38.8961 5.78561C38.7227 5.94871 38.513 6.03026 38.267 6.03026ZM42.0698 9.31554V12.7639H40.4155V6.79915H41.9921V7.85153H42.062C42.194 7.50462 42.4154 7.2302 42.726 7.02827C43.0367 6.82375 43.4134 6.72149 43.8561 6.72149C44.2703 6.72149 44.6314 6.8121 44.9395 6.99332C45.2476 7.17454 45.4871 7.43343 45.6579 7.76998C45.8288 8.10395 45.9142 8.50263 45.9142 8.96604V12.7639H44.2599V9.26117C44.2625 8.89614 44.1693 8.61136 43.9803 8.40684C43.7914 8.19973 43.5312 8.09618 43.1998 8.09618C42.9772 8.09618 42.7804 8.14407 42.6095 8.23986C42.4413 8.33565 42.3092 8.47545 42.2134 8.65926C42.1202 8.84048 42.0723 9.05924 42.0698 9.31554ZM49.9364 12.8804C49.3228 12.8804 48.7947 12.7561 48.352 12.5076C47.9119 12.2565 47.5727 11.9018 47.3345 11.4436C47.0964 10.9828 46.9773 10.4378 46.9773 9.80872C46.9773 9.19516 47.0964 8.65667 47.3345 8.19326C47.5727 7.72985 47.908 7.36871 48.3403 7.10982C48.7753 6.85093 49.2853 6.72149 49.8704 6.72149C50.2639 6.72149 50.6302 6.78492 50.9693 6.91177C51.3111 7.03604 51.6088 7.22373 51.8625 7.47485C52.1188 7.72597 52.3181 8.04181 52.4605 8.42238C52.6029 8.80035 52.6741 9.24305 52.6741 9.75047V10.2048H47.6374V9.17962H51.1169C51.1169 8.94145 51.0651 8.73045 50.9616 8.54664C50.858 8.36283 50.7143 8.21915 50.5305 8.1156C50.3493 8.00945 50.1383 7.95638 49.8975 7.95638C49.6464 7.95638 49.4238 8.01463 49.2296 8.13113C49.038 8.24504 48.8879 8.39908 48.7791 8.59324C48.6704 8.78482 48.6147 8.9984 48.6122 9.23399V10.2087C48.6122 10.5038 48.6665 10.7588 48.7753 10.9737C48.8866 11.1886 49.0432 11.3543 49.2451 11.4708C49.4471 11.5873 49.6865 11.6455 49.9635 11.6455C50.1474 11.6455 50.3156 11.6196 50.4684 11.5679C50.6211 11.5161 50.7519 11.4384 50.8606 11.3349C50.9693 11.2313 51.0522 11.1044 51.1091 10.9543L52.6391 11.0553C52.5615 11.4229 52.4023 11.7439 52.1615 12.0183C51.9233 12.2902 51.6153 12.5024 51.2373 12.6552C50.8619 12.8053 50.4283 12.8804 49.9364 12.8804ZM55.4079 4.8109V12.7639H53.7537V4.8109H55.4079Z" fill="white"/>
<rect x="1.12988" y="45.8374" width="57.3211" height="17.8423" rx="5.2177" fill="url(#paint3_radial_39_2213)" fill-opacity="0.2"/>
<rect x="1.12988" y="45.8374" width="57.3211" height="17.8423" rx="5.2177" stroke="white" stroke-width="0.5"/>
<path d="M19.6234 52.2938V53.5364H16.0313V52.2938H19.6234ZM16.8468 50.8647H18.5011V56.4256C18.5011 56.5784 18.5244 56.6975 18.571 56.7829C18.6176 56.8657 18.6823 56.924 18.7651 56.9576C18.8506 56.9913 18.949 57.0081 19.0603 57.0081C19.1379 57.0081 19.2156 57.0016 19.2933 56.9887C19.3709 56.9732 19.4305 56.9615 19.4719 56.9538L19.7321 58.1848C19.6492 58.2107 19.5327 58.2404 19.3826 58.2741C19.2324 58.3103 19.0499 58.3323 18.835 58.3401C18.4364 58.3556 18.0869 58.3026 17.7865 58.1809C17.4888 58.0592 17.2571 57.8702 17.0914 57.6139C16.9257 57.3576 16.8442 57.034 16.8468 56.6431V50.8647ZM20.701 58.2585V52.2938H22.3048V53.3345H22.3669C22.4756 52.9643 22.6582 52.6847 22.9145 52.4957C23.1708 52.3041 23.4659 52.2083 23.7999 52.2083C23.8827 52.2083 23.972 52.2135 24.0678 52.2239C24.1636 52.2342 24.2477 52.2485 24.3202 52.2666V53.7345C24.2425 53.7112 24.1351 53.6905 23.9979 53.6724C23.8607 53.6542 23.7351 53.6452 23.6212 53.6452C23.3779 53.6452 23.1604 53.6982 22.9688 53.8044C22.7798 53.9079 22.6297 54.0529 22.5184 54.2393C22.4096 54.4257 22.3553 54.6406 22.3553 54.8839V58.2585H20.701ZM27.6162 58.375C27.0026 58.375 26.4745 58.2508 26.0318 58.0022C25.5917 57.7511 25.2525 57.3965 25.0144 56.9382C24.7762 56.4774 24.6571 55.9324 24.6571 55.3033C24.6571 54.6898 24.7762 54.1513 25.0144 53.6879C25.2525 53.2245 25.5878 52.8633 26.0201 52.6044C26.4551 52.3456 26.9651 52.2161 27.5502 52.2161C27.9437 52.2161 28.31 52.2795 28.6491 52.4064C28.9909 52.5307 29.2886 52.7184 29.5423 52.9695C29.7986 53.2206 29.9979 53.5364 30.1403 53.917C30.2827 54.295 30.3539 54.7377 30.3539 55.2451V55.6994H25.3173V54.6743H28.7967C28.7967 54.4361 28.7449 54.2251 28.6414 54.0413C28.5378 53.8575 28.3941 53.7138 28.2103 53.6102C28.0291 53.5041 27.8181 53.451 27.5773 53.451C27.3262 53.451 27.1036 53.5093 26.9094 53.6258C26.7178 53.7397 26.5677 53.8937 26.4589 54.0879C26.3502 54.2794 26.2946 54.493 26.292 54.7286V55.7033C26.292 55.9985 26.3463 56.2535 26.4551 56.4683C26.5664 56.6832 26.723 56.8489 26.9249 56.9654C27.1269 57.0819 27.3663 57.1402 27.6434 57.1402C27.8272 57.1402 27.9954 57.1143 28.1482 57.0625C28.3009 57.0107 28.4317 56.933 28.5404 56.8295C28.6491 56.7259 28.732 56.5991 28.7889 56.4489L30.319 56.5499C30.2413 56.9175 30.0821 57.2385 29.8413 57.5129C29.6031 57.7848 29.2951 57.9971 28.9171 58.1498C28.5417 58.3 28.1081 58.375 27.6162 58.375ZM34.1518 58.375C33.5382 58.375 33.0101 58.2508 32.5674 58.0022C32.1273 57.7511 31.7881 57.3965 31.55 56.9382C31.3118 56.4774 31.1927 55.9324 31.1927 55.3033C31.1927 54.6898 31.3118 54.1513 31.55 53.6879C31.7881 53.2245 32.1234 52.8633 32.5557 52.6044C32.9907 52.3456 33.5007 52.2161 34.0858 52.2161C34.4793 52.2161 34.8456 52.2795 35.1847 52.4064C35.5265 52.5307 35.8242 52.7184 36.0779 52.9695C36.3342 53.2206 36.5335 53.5364 36.6759 53.917C36.8183 54.295 36.8895 54.7377 36.8895 55.2451V55.6994H31.8529V54.6743H35.3323C35.3323 54.4361 35.2805 54.2251 35.177 54.0413C35.0734 53.8575 34.9297 53.7138 34.7459 53.6102C34.5647 53.5041 34.3537 53.451 34.1129 53.451C33.8618 53.451 33.6392 53.5093 33.445 53.6258C33.2534 53.7397 33.1033 53.8937 32.9946 54.0879C32.8858 54.2794 32.8302 54.493 32.8276 54.7286V55.7033C32.8276 55.9985 32.8819 56.2535 32.9907 56.4683C33.102 56.6832 33.2586 56.8489 33.4606 56.9654C33.6625 57.0819 33.902 57.1402 34.179 57.1402C34.3628 57.1402 34.5311 57.1143 34.6838 57.0625C34.8365 57.0107 34.9673 56.933 35.076 56.8295C35.1847 56.7259 35.2676 56.5991 35.3245 56.4489L36.8546 56.5499C36.7769 56.9175 36.6177 57.2385 36.3769 57.5129C36.1387 57.7848 35.8307 57.9971 35.4527 58.1498C35.0773 58.3 34.6437 58.375 34.1518 58.375ZM42.9319 53.9947L41.4175 54.0879C41.3916 53.9584 41.3359 53.8419 41.2505 53.7384C41.165 53.6322 41.0524 53.5481 40.9126 53.486C40.7754 53.4212 40.611 53.3889 40.4194 53.3889C40.1631 53.3889 39.947 53.4432 39.7709 53.552C39.5949 53.6581 39.5069 53.8005 39.5069 53.9791C39.5069 54.1215 39.5638 54.2419 39.6777 54.3403C39.7916 54.4387 39.9871 54.5176 40.2641 54.5772L41.3437 54.7946C41.9236 54.9137 42.3559 55.1053 42.6407 55.3694C42.9255 55.6334 43.0679 55.9803 43.0679 56.4101C43.0679 56.801 42.9527 57.144 42.7222 57.4392C42.4944 57.7343 42.1812 57.9647 41.7825 58.1304C41.3864 58.2935 40.9294 58.375 40.4117 58.375C39.6221 58.375 38.993 58.2107 38.5244 57.8819C38.0584 57.5505 37.7853 57.1 37.705 56.5305L39.3321 56.445C39.3813 56.6858 39.5004 56.8696 39.6894 56.9965C39.8784 57.1207 40.1204 57.1829 40.4156 57.1829C40.7055 57.1829 40.9385 57.1272 41.1146 57.0159C41.2932 56.902 41.3838 56.7557 41.3864 56.5771C41.3838 56.4269 41.3204 56.3039 41.1961 56.2082C41.0718 56.1098 40.8803 56.0347 40.6214 55.9829L39.5884 55.7771C39.0059 55.6606 38.5723 55.4587 38.2875 55.1713C38.0053 54.8839 37.8642 54.5176 37.8642 54.0723C37.8642 53.6892 37.9678 53.3591 38.1749 53.0821C38.3846 52.8051 38.6784 52.5915 39.0564 52.4413C39.437 52.2912 39.8822 52.2161 40.3923 52.2161C41.1456 52.2161 41.7385 52.3753 42.1708 52.6938C42.6057 53.0122 42.8595 53.4458 42.9319 53.9947Z" fill="white"/>
<rect x="263.796" y="0.342773" width="59.2325" height="17.8423" rx="5.2177" fill="url(#paint4_radial_39_2213)" fill-opacity="0.2"/>
<rect x="263.796" y="0.342773" width="59.2325" height="17.8423" rx="5.2177" fill="white" fill-opacity="0.03"/>
<rect x="263.796" y="0.342773" width="59.2325" height="17.8423" rx="5.2177" stroke="white" stroke-width="0.5"/>
<path d="M282.397 10.2242V6.79915H284.052V12.7639H282.463V11.6805H282.401C282.267 12.03 282.043 12.3109 281.729 12.5232C281.419 12.7354 281.039 12.8416 280.592 12.8416C280.193 12.8416 279.842 12.751 279.539 12.5698C279.236 12.3885 278.999 12.1309 278.829 11.797C278.66 11.463 278.575 11.063 278.572 10.597V6.79915H280.227V10.3019C280.229 10.654 280.324 10.9323 280.51 11.1368C280.696 11.3413 280.946 11.4436 281.26 11.4436C281.459 11.4436 281.645 11.3983 281.819 11.3077C281.992 11.2145 282.132 11.0773 282.238 10.896C282.347 10.7148 282.4 10.4909 282.397 10.2242ZM287.029 9.31554V12.7639H285.375V6.79915H286.951V7.85153H287.021C287.153 7.50462 287.375 7.2302 287.685 7.02827C287.996 6.82375 288.373 6.72149 288.815 6.72149C289.23 6.72149 289.591 6.8121 289.899 6.99332C290.207 7.17454 290.446 7.43343 290.617 7.76998C290.788 8.10395 290.874 8.50263 290.874 8.96604V12.7639H289.219V9.26117C289.222 8.89614 289.129 8.61136 288.94 8.40684C288.751 8.19973 288.491 8.09618 288.159 8.09618C287.937 8.09618 287.74 8.14407 287.569 8.23986C287.401 8.33565 287.269 8.47545 287.173 8.65926C287.08 8.84048 287.032 9.05924 287.029 9.31554ZM292.177 12.7639V6.79915H293.832V12.7639H292.177ZM293.008 6.03026C292.763 6.03026 292.552 5.94871 292.375 5.78561C292.202 5.61992 292.115 5.42187 292.115 5.19146C292.115 4.96364 292.202 4.76818 292.375 4.60508C292.552 4.4394 292.763 4.35655 293.008 4.35655C293.254 4.35655 293.464 4.4394 293.638 4.60508C293.814 4.76818 293.902 4.96364 293.902 5.19146C293.902 5.42187 293.814 5.61992 293.638 5.78561C293.464 5.94871 293.254 6.03026 293.008 6.03026ZM297.852 12.8804C297.249 12.8804 296.727 12.7523 296.287 12.496C295.849 12.2371 295.512 11.8772 295.273 11.4164C295.035 10.953 294.916 10.4158 294.916 9.80483C294.916 9.18868 295.035 8.6502 295.273 8.18938C295.512 7.72597 295.849 7.36612 296.287 7.10982C296.727 6.85093 297.249 6.72149 297.852 6.72149C298.455 6.72149 298.975 6.85093 299.413 7.10982C299.853 7.36612 300.192 7.72597 300.43 8.18938C300.669 8.6502 300.788 9.18868 300.788 9.80483C300.788 10.4158 300.669 10.953 300.43 11.4164C300.192 11.8772 299.853 12.2371 299.413 12.496C298.975 12.7523 298.455 12.8804 297.852 12.8804ZM297.86 11.5989C298.134 11.5989 298.363 11.5213 298.547 11.3659C298.731 11.208 298.869 10.9931 298.963 10.7213C299.058 10.4495 299.106 10.1401 299.106 9.79318C299.106 9.44628 299.058 9.13691 298.963 8.86507C298.869 8.59324 298.731 8.37837 298.547 8.22044C298.363 8.06252 298.134 7.98356 297.86 7.98356C297.583 7.98356 297.35 8.06252 297.161 8.22044C296.974 8.37837 296.833 8.59324 296.737 8.86507C296.644 9.13691 296.598 9.44628 296.598 9.79318C296.598 10.1401 296.644 10.4495 296.737 10.7213C296.833 10.9931 296.974 11.208 297.161 11.3659C297.35 11.5213 297.583 11.5989 297.86 11.5989ZM303.518 9.31554V12.7639H301.863V6.79915H303.44V7.85153H303.51C303.642 7.50462 303.863 7.2302 304.174 7.02827C304.485 6.82375 304.861 6.72149 305.304 6.72149C305.718 6.72149 306.079 6.8121 306.387 6.99332C306.696 7.17454 306.935 7.43343 307.106 7.76998C307.277 8.10395 307.362 8.50263 307.362 8.96604V12.7639H305.708V9.26117C305.71 8.89614 305.617 8.61136 305.428 8.40684C305.239 8.19973 304.979 8.09618 304.648 8.09618C304.425 8.09618 304.228 8.14407 304.057 8.23986C303.889 8.33565 303.757 8.47545 303.661 8.65926C303.568 8.84048 303.52 9.05924 303.518 9.31554Z" fill="white"/>
<path d="M213.598 8.91012C213.402 9.10538 213.402 9.42196 213.598 9.61723L216.78 12.7992C216.975 12.9945 217.291 12.9945 217.487 12.7992C217.682 12.6039 217.682 12.2874 217.487 12.0921L214.658 9.26367L217.487 6.43524C217.682 6.23998 217.682 5.9234 217.487 5.72814C217.291 5.53288 216.975 5.53288 216.78 5.72814L213.598 8.91012ZM260.197 9.61723C260.392 9.42196 260.392 9.10538 260.197 8.91012L257.015 5.72814C256.82 5.53288 256.503 5.53288 256.308 5.72814C256.113 5.9234 256.113 6.23998 256.308 6.43524L259.136 9.26367L256.308 12.0921C256.113 12.2874 256.113 12.6039 256.308 12.7992C256.503 12.9945 256.82 12.9945 257.015 12.7992L260.197 9.61723ZM213.951 9.76367H259.843V8.76367H213.951V9.76367Z" fill="#07F6F9" fill-opacity="0.39"/>
<path d="M177.943 20.5214C177.748 20.3262 177.431 20.3262 177.236 20.5214L174.054 23.7034C173.859 23.8987 173.859 24.2153 174.054 24.4105C174.249 24.6058 174.566 24.6058 174.761 24.4105L177.589 21.5821L180.418 24.4105C180.613 24.6058 180.93 24.6058 181.125 24.4105C181.32 24.2153 181.32 23.8987 181.125 23.7034L177.943 20.5214ZM177.236 43.1863C177.431 43.3816 177.748 43.3816 177.943 43.1863L181.125 40.0043C181.32 39.8091 181.32 39.4925 181.125 39.2972C180.93 39.102 180.613 39.102 180.418 39.2972L177.589 42.1257L174.761 39.2972C174.566 39.102 174.249 39.102 174.054 39.2972C173.859 39.4925 173.859 39.8091 174.054 40.0043L177.236 43.1863ZM177.089 20.875L177.089 42.8328L178.089 42.8328L178.089 20.875L177.089 20.875Z" fill="#07F6F9" fill-opacity="0.39"/>
<path d="M32.9868 43.3435C33.182 43.5388 33.4986 43.5388 33.6939 43.3435L36.8759 40.1616C37.0711 39.9663 37.0711 39.6497 36.8759 39.4545C36.6806 39.2592 36.364 39.2592 36.1688 39.4545L33.3403 42.2829L30.5119 39.4545C30.3166 39.2592 30.0001 39.2592 29.8048 39.4545C29.6095 39.6497 29.6095 39.9663 29.8048 40.1616L32.9868 43.3435ZM32.8403 21.0322L32.8403 42.99L33.8403 42.99L33.8403 21.0322L32.8403 21.0322Z" fill="#07F6F9" fill-opacity="0.39"/>
<path d="M139.613 9.76367C139.889 9.76367 140.113 9.53981 140.113 9.26367C140.113 8.98753 139.889 8.76367 139.613 8.76367V9.76367ZM72.5685 8.91012C72.3732 9.10538 72.3732 9.42196 72.5685 9.61723L75.7505 12.7992C75.9457 12.9945 76.2623 12.9945 76.4576 12.7992C76.6528 12.6039 76.6528 12.2874 76.4576 12.0921L73.6292 9.26367L76.4576 6.43524C76.6528 6.23998 76.6528 5.9234 76.4576 5.72814C76.2623 5.53288 75.9457 5.53288 75.7505 5.72814L72.5685 8.91012ZM139.613 8.76367L72.922 8.76367V9.76367L139.613 9.76367V8.76367Z" fill="#07F6F9" fill-opacity="0.39"/>
<path d="M141.228 55.1075C141.475 55.2308 141.835 55.1744 142.033 54.9816C142.23 54.7887 142.19 54.5324 141.943 54.4091L141.228 55.1075ZM71.6317 19.4772C71.3172 19.5264 71.0907 19.7475 71.1256 19.9711L71.6957 23.6144C71.7307 23.838 72.0139 23.9793 72.3284 23.9301C72.6428 23.8809 72.8694 23.6598 72.8344 23.4362L72.3277 20.1977L76.8826 19.485C77.1971 19.4358 77.4236 19.2147 77.3887 18.9911C77.3537 18.7676 77.0704 18.6262 76.756 18.6754L71.6317 19.4772ZM141.943 54.4091L72.0528 19.5328L71.3372 20.2312L141.228 55.1075L141.943 54.4091Z" fill="#14878C"/>
<path d="M141.585 55.2583C141.862 55.2583 142.085 55.0344 142.085 54.7583C142.085 54.4822 141.862 54.2583 141.585 54.2583L141.585 55.2583ZM61.8422 54.4047C61.6469 54.6 61.6469 54.9166 61.8422 55.1119L65.0241 58.2938C65.2194 58.4891 65.536 58.4891 65.7312 58.2938C65.9265 58.0986 65.9265 57.782 65.7312 57.5867L62.9028 54.7583L65.7312 51.9299C65.9265 51.7346 65.9265 51.418 65.7312 51.2228C65.536 51.0275 65.2194 51.0275 65.0241 51.2228L61.8422 54.4047ZM141.585 54.2583L62.1957 54.2583L62.1957 55.2583L141.585 55.2583L141.585 54.2583Z" fill="#14878C"/>
<defs>
<radialGradient id="paint0_radial_39_2213" cx="0" cy="0" r="1" gradientUnits="userSpaceOnUse" gradientTransform="translate(176.767 9.2639) rotate(90) scale(9.17113 33.4502)">
<stop stop-color="#07F6F9"/>
<stop offset="1" stop-color="#5D40A4" stop-opacity="0"/>
</radialGradient>
<radialGradient id="paint1_radial_39_2213" cx="0" cy="0" r="1" gradientUnits="userSpaceOnUse" gradientTransform="translate(176.767 54.7585) rotate(90) scale(9.17113 31.5388)">
<stop stop-color="#07F6F9"/>
<stop offset="1" stop-color="#5D40A4" stop-opacity="0"/>
</radialGradient>
<radialGradient id="paint2_radial_39_2213" cx="0" cy="0" r="1" gradientUnits="userSpaceOnUse" gradientTransform="translate(35.0469 9.2639) rotate(90) scale(9.17113 34.167)">
<stop stop-color="#07F6F9"/>
<stop offset="1" stop-color="#5D40A4" stop-opacity="0"/>
</radialGradient>
<radialGradient id="paint3_radial_39_2213" cx="0" cy="0" r="1" gradientUnits="userSpaceOnUse" gradientTransform="translate(29.7904 54.7585) rotate(90) scale(9.17113 28.9105)">
<stop stop-color="#07F6F9"/>
<stop offset="1" stop-color="#5D40A4" stop-opacity="0"/>
</radialGradient>
<radialGradient id="paint4_radial_39_2213" cx="0" cy="0" r="1" gradientUnits="userSpaceOnUse" gradientTransform="translate(293.412 9.2639) rotate(90) scale(12.0161 39.131)">
<stop stop-color="#07F6F9"/>
<stop offset="1" stop-color="#5D40A4" stop-opacity="0"/>
</radialGradient>
</defs>
</svg>
