<svg width="17" height="17" viewBox="0 0 17 17" fill="none" xmlns="http://www.w3.org/2000/svg">
<path d="M7.96485 0C8.32069 0 8.67654 0 9.02481 0C9.31251 0.0378558 9.59265 0.0605692 9.88035 0.113567C11.7883 0.439127 13.4161 1.29467 14.7259 2.72561C16.5808 4.76225 17.3001 7.16231 16.8837 9.88035C16.5884 11.7959 15.7026 13.4161 14.2792 14.7259C12.3183 16.5278 9.99392 17.2547 7.35159 16.9215C5.67079 16.7095 4.17927 16.0206 2.90732 14.9C1.4158 13.5826 0.484553 11.9473 0.128709 9.98635C0.0757113 9.66836 0.0378558 9.35037 0 9.03238C0 8.67654 0 8.32069 0 7.97242C0.0151423 7.86643 0.0302846 7.75286 0.0378558 7.64686C0.234706 5.81464 0.938823 4.20199 2.17292 2.83161C3.4903 1.37795 5.11053 0.46184 7.05631 0.128709C7.35159 0.0757113 7.65443 0.0454269 7.96485 0ZM7.05631 11.5384C8.39641 10.1983 9.72893 8.86582 11.0463 7.54844C10.5163 7.01846 9.97878 6.48091 9.45637 5.95092C8.13141 7.27588 6.79889 8.6084 5.46637 9.94092C5.99635 10.4709 6.5339 11.0085 7.05631 11.5384ZM4.80011 10.592C4.66383 10.7207 4.51998 10.8419 4.39127 10.9782C4.3307 11.0463 4.27013 11.1372 4.24741 11.228C4.13385 11.6899 4.03542 12.1517 3.937 12.6211C3.86129 12.9618 4.04299 13.1359 4.37612 13.0602C4.81525 12.9618 5.24681 12.871 5.68593 12.765C5.78436 12.7422 5.89035 12.7195 5.9585 12.659C6.12506 12.5151 6.27648 12.3485 6.42033 12.2047C5.87521 11.6747 5.33766 11.1296 4.80011 10.592ZM11.7429 6.89732C12.0003 6.6399 12.2653 6.38248 12.5303 6.10992C12.6362 6.00392 12.6362 5.87521 12.5303 5.76922C12.0987 5.33009 11.6671 4.89853 11.228 4.46698C11.1296 4.36855 11.0009 4.36855 10.9025 4.45941C10.6299 4.7244 10.3649 4.99696 10.1075 5.25438C10.6526 5.81464 11.1977 6.35977 11.7429 6.89732Z" fill="white"/>
<path d="M7.0565 11.5386C6.52652 11.0087 5.98897 10.4711 5.46656 9.94112C6.79151 8.61617 8.13161 7.27608 9.45656 5.95113C9.97897 6.47354 10.5241 7.01866 11.0465 7.54864C9.72912 8.86602 8.3966 10.1985 7.0565 11.5386Z" fill="#031627"/>
<path d="M4.79985 10.5918C5.3374 11.1293 5.87495 11.6744 6.42007 12.212C6.27622 12.3558 6.1248 12.5224 5.95823 12.6663C5.89009 12.7268 5.77653 12.7496 5.68567 12.7723C5.24654 12.8707 4.81499 12.9691 4.37586 13.0675C4.04273 13.1433 3.86102 12.9615 3.93674 12.6284C4.03516 12.1666 4.13359 11.6972 4.24715 11.2353C4.26987 11.1445 4.32286 11.0536 4.39101 10.9855C4.51971 10.8492 4.66357 10.7205 4.79985 10.5918Z" fill="#031627"/>
<path d="M11.7426 6.89719C11.1975 6.35206 10.6523 5.81451 10.1072 5.26182C10.3646 5.0044 10.6296 4.72426 10.9022 4.46685C11.0006 4.36842 11.1293 4.36842 11.2277 4.47442C11.6669 4.90597 12.0984 5.33753 12.53 5.77666C12.636 5.88265 12.636 6.01136 12.53 6.11736C12.2726 6.38235 12 6.64734 11.7426 6.89719Z" fill="#031627"/>
</svg>
