<svg width="19" height="23" viewBox="0 0 19 23" fill="none" xmlns="http://www.w3.org/2000/svg">
<path d="M3.32222 18.6556V9.45556C3.32222 7.82889 3.96841 6.26886 5.11863 5.11863C6.26886 3.96841 7.82889 3.32222 9.45556 3.32222C11.0822 3.32222 12.6423 3.96841 13.7925 5.11863C14.9427 6.26886 15.5889 7.82889 15.5889 9.45556V18.6556M3.32222 18.6556H15.5889M3.32222 18.6556H1.27778M15.5889 18.6556H17.6333M8.43333 21.7222H10.4778" stroke="white" stroke-width="2.5" stroke-linecap="round" stroke-linejoin="round"/>
<path d="M9.45556 3.32222C10.0201 3.32222 10.4778 2.86456 10.4778 2.3C10.4778 1.73544 10.0201 1.27778 9.45556 1.27778C8.891 1.27778 8.43333 1.73544 8.43333 2.3C8.43333 2.86456 8.891 3.32222 9.45556 3.32222Z" stroke="white" stroke-width="2.5"/>
</svg>
