<svg width="1042" height="120" viewBox="0 0 1042 120" fill="none" xmlns="http://www.w3.org/2000/svg">
<g filter="url(#filter0_b_185_18247)">
<path d="M0.882812 10.3652C0.882812 4.84239 5.35997 0.365234 10.8828 0.365234H1031.88C1037.41 0.365234 1041.88 4.84239 1041.88 10.3652V119.365H0.882812V10.3652Z" fill="url(#paint0_radial_185_18247)" fill-opacity="0.2"/>
<path d="M0.882812 10.3652C0.882812 4.84239 5.35997 0.365234 10.8828 0.365234H1031.88C1037.41 0.365234 1041.88 4.84239 1041.88 10.3652V119.365H0.882812V10.3652Z" fill="white" fill-opacity="0.1"/>
<path d="M1.13281 10.3652C1.13281 4.98046 5.49804 0.615234 10.8828 0.615234H1031.88C1037.27 0.615234 1041.63 4.98046 1041.63 10.3652V119.115H1.13281V10.3652Z" stroke="white" stroke-width="0.5"/>
</g>
<defs>
<filter id="filter0_b_185_18247" x="-3.21719" y="-3.73477" width="1049.2" height="127.2" filterUnits="userSpaceOnUse" color-interpolation-filters="sRGB">
<feFlood flood-opacity="0" result="BackgroundImageFix"/>
<feGaussianBlur in="BackgroundImageFix" stdDeviation="2.05"/>
<feComposite in2="SourceAlpha" operator="in" result="effect1_backgroundBlur_185_18247"/>
<feBlend mode="normal" in="SourceGraphic" in2="effect1_backgroundBlur_185_18247" result="shape"/>
</filter>
<radialGradient id="paint0_radial_185_18247" cx="0" cy="0" r="1" gradientUnits="userSpaceOnUse" gradientTransform="translate(521.383 59.8652) scale(520.5 59.5)">
<stop stop-color="#07F6F9"/>
<stop offset="1" stop-color="#5D40A4" stop-opacity="0"/>
</radialGradient>
</defs>
</svg>
