<svg width="13" height="21" viewBox="0 0 13 21" fill="none" xmlns="http://www.w3.org/2000/svg">
<path d="M6.42992 20.3652C5.99714 20.2743 5.54948 20.2304 5.13441 20.0848C2.80758 19.2685 1.40724 17.5937 0.961001 15.0721C0.89796 14.7167 0.887335 14.3467 0.886627 13.9836C0.88096 11.132 0.883086 11.4054 0.883794 8.55382C0.883794 8.03881 1.20466 7.67195 1.65869 7.66114C2.07377 7.6516 2.40455 7.93708 2.46901 8.36816C2.48317 8.46417 2.48459 8.56272 2.48459 8.66C2.4853 11.4989 2.47113 11.2121 2.49026 14.0504C2.50372 16.0316 3.39549 17.4774 5.1167 18.3027C7.74597 19.5641 10.8661 17.7266 11.2302 14.7364C11.2571 14.5177 11.2713 14.2958 11.2713 14.0752C11.2741 11.0481 11.2762 8.02037 11.272 4.99329C11.2698 3.57098 10.3944 2.4189 9.09177 2.10226C7.3904 1.68899 5.69468 3.05343 5.68477 4.87439C5.66989 7.67386 5.67839 10.4733 5.68193 13.2728C5.68264 13.9773 6.22167 14.5342 6.88041 14.533C7.54127 14.5317 8.07605 13.976 8.07676 13.2702C8.0803 10.6533 8.07746 8.03563 8.07888 5.41864C8.07888 4.88329 8.43162 4.51707 8.91965 4.53741C9.28231 4.55267 9.58689 4.82289 9.6563 5.19611C9.67259 5.28512 9.67968 5.37668 9.67968 5.4676C9.68109 8.05216 9.68534 10.6367 9.67826 13.2219C9.67543 14.3123 9.23981 15.1815 8.34662 15.7563C7.44139 16.3387 6.48517 16.3685 5.55019 15.8395C4.60104 15.3023 4.09318 14.435 4.08539 13.3122C4.06626 10.5064 4.05776 7.69992 4.0861 4.8941C4.10876 2.61854 5.68052 0.770244 7.82318 0.413555C7.90817 0.399568 7.99317 0.381765 8.07817 0.365234C8.34025 0.365234 8.60304 0.365234 8.86511 0.365234C8.91328 0.377315 8.96144 0.388759 9.0089 0.401475C9.40485 0.510835 9.82559 0.564242 10.1932 0.739726C11.9215 1.56628 12.8473 2.98922 12.8671 4.97421C12.8969 8.01211 12.8756 11.0506 12.8735 14.0885C12.8735 14.2901 12.8607 14.4916 12.8444 14.6919C12.6362 17.2409 10.8675 19.4598 8.49891 20.1268C8.11642 20.2349 7.71906 20.287 7.32877 20.3652C7.02986 20.3652 6.72954 20.3652 6.42992 20.3652Z" fill="white"/>
</svg>
