<svg width="178" height="34" viewBox="0 0 178 34" fill="none" xmlns="http://www.w3.org/2000/svg">
<path d="M6.90931 34H0.381313V0.927999H9.26131C13.3893 8.32 21.0213 21.76 22.5573 25.36H22.6533C22.2693 21.904 22.2693 16.144 22.2693 10.72V0.927999H28.7493V34H20.3493C16.7973 27.52 8.34931 12.16 6.66931 8.32H6.57331C6.81331 11.2 6.90931 18.016 6.90931 23.92V34ZM36.6157 34V0.927999H43.7677V28.144H60.2797L59.4637 34H36.6157ZM73.8918 34H66.7398V22.288C66.7398 21.952 66.6918 21.616 66.4518 21.232L55.0278 0.927999H63.1398C65.6838 5.92 68.9958 12.544 70.6758 16.144C72.1158 12.688 75.7158 5.68 78.2118 0.927999H85.6998L74.1318 21.136C74.0358 21.376 73.8918 21.52 73.8918 22.192V34ZM98.1303 34V6.784H88.0503V0.927999H115.314V6.784H105.282V34H98.1303ZM142.525 13.84V19.744H126.685V28.144H144.157L143.293 34H119.725V0.927999H143.197V6.784H126.685V13.84H142.525ZM155.784 34H149.256V0.927999H158.136C162.264 8.32 169.896 21.76 171.432 25.36H171.528C171.144 21.904 171.144 16.144 171.144 10.72V0.927999H177.624V34H169.224C165.672 27.52 157.224 12.16 155.544 8.32H155.448C155.688 11.2 155.784 18.016 155.784 23.92V34Z" fill="white"/>
</svg>
