<svg width="28" height="28" viewBox="0 0 28 28" fill="none" xmlns="http://www.w3.org/2000/svg">
<path d="M11.9273 9.14211C11.9273 9.85305 11.9273 10.5421 12.1516 11.1874C9.79453 13.9546 3.57109 21.2663 2.99141 21.8241C2.87619 21.9275 2.78403 22.054 2.7209 22.1953C2.65777 22.3366 2.6251 22.4897 2.625 22.6445C2.625 23.1093 2.90937 23.5577 3.15 23.8093C3.51094 24.1866 5.05312 25.614 5.3375 25.3405C6.17969 24.5202 6.34922 24.3015 6.69375 23.9624C7.21328 23.4538 6.63906 22.4148 6.81953 21.9937C7 21.5726 7.19141 21.4905 7.50312 21.4249C7.81484 21.3593 8.36719 21.5835 8.79922 21.589C9.25312 21.5945 9.49922 21.403 9.83828 21.0859C10.1117 20.8343 10.3086 20.5991 10.3141 20.2327C10.325 19.7405 9.61406 19.0898 10.1445 18.5702C10.675 18.0507 11.4406 18.9093 12.0039 18.8437C12.5672 18.778 13.2508 17.996 13.3219 17.6624C13.393 17.3288 12.682 16.4702 12.7914 15.9835C12.8297 15.8195 13.1633 15.4366 13.4148 15.382C13.6664 15.3273 14.782 15.7593 15.0336 15.7046C15.3398 15.639 15.6953 15.3163 15.9852 15.1359C16.8328 15.5023 17.6039 15.6499 18.5938 15.6499C22.3398 15.6499 25.375 12.7296 25.375 9.13117C25.375 5.53273 22.3398 2.625 18.5938 2.625C14.8477 2.625 11.9273 5.54367 11.9273 9.14211ZM21.875 7.875C21.875 8.22112 21.7724 8.55946 21.5801 8.84725C21.3878 9.13503 21.1145 9.35934 20.7947 9.49179C20.4749 9.62424 20.1231 9.6589 19.7836 9.59137C19.4441 9.52385 19.1323 9.35718 18.8876 9.11244C18.6428 8.86769 18.4761 8.55587 18.4086 8.21641C18.3411 7.87694 18.3758 7.52507 18.5082 7.2053C18.6407 6.88553 18.865 6.61222 19.1528 6.41993C19.4405 6.22764 19.7789 6.125 20.125 6.125C20.5891 6.125 21.0342 6.30937 21.3624 6.63756C21.6906 6.96575 21.875 7.41087 21.875 7.875Z" fill="url(#paint0_linear_1_3347)"/>
<defs>
<linearGradient id="paint0_linear_1_3347" x1="14" y1="2.625" x2="14" y2="25.3751" gradientUnits="userSpaceOnUse">
<stop stop-color="#1FA9FF"/>
<stop offset="1" stop-color="#3BD0FF"/>
</linearGradient>
</defs>
</svg>
