<svg width="25" height="25" viewBox="0 0 25 25" fill="none" xmlns="http://www.w3.org/2000/svg">
<path d="M18.5 13.0112H13.5V18.0112C13.5 18.2764 13.3946 18.5308 13.2071 18.7183C13.0196 18.9059 12.7652 19.0112 12.5 19.0112C12.2348 19.0112 11.9804 18.9059 11.7929 18.7183C11.6054 18.5308 11.5 18.2764 11.5 18.0112V13.0112H6.5C6.23478 13.0112 5.98043 12.9059 5.79289 12.7183C5.60536 12.5308 5.5 12.2764 5.5 12.0112C5.5 11.746 5.60536 11.4917 5.79289 11.3041C5.98043 11.1166 6.23478 11.0112 6.5 11.0112H11.5V6.01123C11.5 5.74601 11.6054 5.49166 11.7929 5.30412C11.9804 5.11659 12.2348 5.01123 12.5 5.01123C12.7652 5.01123 13.0196 5.11659 13.2071 5.30412C13.3946 5.49166 13.5 5.74601 13.5 6.01123V11.0112H18.5C18.7652 11.0112 19.0196 11.1166 19.2071 11.3041C19.3946 11.4917 19.5 11.746 19.5 12.0112C19.5 12.2764 19.3946 12.5308 19.2071 12.7183C19.0196 12.9059 18.7652 13.0112 18.5 13.0112Z" fill="#048FFD"/>
</svg>
