<svg width="34" height="35" viewBox="0 0 34 35" fill="none" xmlns="http://www.w3.org/2000/svg">
<path d="M11.333 5.67977V22.6798C11.333 23.4312 11.6315 24.1519 12.1629 24.6832C12.6942 25.2146 13.4149 25.5131 14.1663 25.5131H25.4997C26.2511 25.5131 26.9718 25.2146 27.5031 24.6832C28.0345 24.1519 28.333 23.4312 28.333 22.6798V10.2726C28.333 9.89515 28.2575 9.5215 28.111 9.17362C27.9646 8.82573 27.7501 8.51061 27.4802 8.24677L22.7839 3.65394C22.2546 3.13637 21.5437 2.84653 20.8034 2.84644H14.1663C13.4149 2.84644 12.6942 3.14495 12.1629 3.6763C11.6315 4.20765 11.333 4.92832 11.333 5.67977Z" stroke="#07F6F9" stroke-width="1.7" stroke-linecap="round" stroke-linejoin="round"/>
<path d="M22.6665 25.513V28.3464C22.6665 29.0978 22.368 29.8185 21.8366 30.3498C21.3053 30.8812 20.5846 31.1797 19.8332 31.1797H8.49984C7.74839 31.1797 7.02772 30.8812 6.49637 30.3498C5.96501 29.8185 5.6665 29.0978 5.6665 28.3464V12.763C5.6665 12.0116 5.96501 11.2909 6.49637 10.7596C7.02772 10.2282 7.74839 9.92969 8.49984 9.92969H11.3332" stroke="#07F6F9" stroke-width="1.7" stroke-linecap="round" stroke-linejoin="round"/>
</svg>
