<svg width="14" height="14" viewBox="0 0 14 14" fill="none" xmlns="http://www.w3.org/2000/svg">
<path d="M6.11362 1.97559C5.32474 1.97559 4.55358 2.20951 3.89766 2.64779C3.24174 3.08606 2.73051 3.709 2.42862 4.43782C2.12673 5.16665 2.04774 5.96862 2.20164 6.74234C2.35554 7.51605 2.73542 8.22676 3.29324 8.78457C3.85106 9.34239 4.56176 9.72227 5.33548 9.87617C6.10919 10.0301 6.91117 9.95109 7.63999 9.6492C8.36882 9.34731 8.99175 8.83608 9.43003 8.18015C9.8683 7.52423 10.1022 6.75307 10.1022 5.9642C10.1022 4.90637 9.68191 3.89189 8.93392 3.1439C8.18592 2.3959 7.17144 1.97565 6.11362 1.97559Z" stroke="#ADADAD" stroke-miterlimit="10"/>
<path d="M9.08984 8.93994L11.8754 11.7255" stroke="#ADADAD" stroke-miterlimit="10" stroke-linecap="round"/>
</svg>
