<svg width="22" height="17" viewBox="0 0 22 17" fill="none" xmlns="http://www.w3.org/2000/svg">
<path d="M0.00168901 11.3267C0.0349075 11.1303 0.0602436 10.9327 0.101908 10.7386C0.358647 9.54313 0.992052 8.59816 2.01113 7.92053C2.1654 7.81753 2.20594 7.73592 2.15752 7.54569C1.86643 6.40992 2.11022 5.39066 2.94744 4.565C3.78241 3.7416 4.79867 3.50183 5.93654 3.80294C5.99172 3.81758 6.04633 3.83221 6.10151 3.84628C6.10714 3.84797 6.11502 3.8429 6.07449 3.8536C6.39034 3.3949 6.64765 2.93395 6.98715 2.54448C8.46566 0.847016 10.3439 0.0945271 12.5701 0.45248C15.0441 0.850393 16.6689 2.32104 17.478 4.68488C17.5906 5.01357 17.6396 5.36589 17.6948 5.7109C17.7162 5.84429 17.7691 5.88819 17.8896 5.9152C20.3635 6.47915 22.0976 8.75012 21.9957 11.2873C21.9045 13.5532 20.3984 15.5197 18.2235 16.1698C17.8316 16.2868 17.4088 16.3459 16.9989 16.3527C15.5817 16.3746 14.1635 16.3611 12.7458 16.3611C12.6619 16.3611 12.5774 16.3611 12.4812 16.3611C12.4812 14.7672 12.4812 13.1964 12.4812 11.6047C12.5538 11.6008 12.623 11.5935 12.6917 11.5935C13.0785 11.5924 13.4653 11.5884 13.8516 11.5946C14.0976 11.5985 14.3284 11.5834 14.4602 11.3312C14.5925 11.0785 14.4703 10.881 14.3262 10.6828C13.7958 9.95399 13.2688 9.22233 12.7407 8.49179C12.3134 7.90026 11.8866 7.30818 11.4576 6.71778C11.1704 6.32212 10.8253 6.32156 10.5387 6.71722C9.57369 8.05054 8.61092 9.38498 7.64702 10.7189C7.62618 10.7481 7.60535 10.7768 7.58508 10.8061C7.47079 10.9721 7.4387 11.1477 7.53554 11.3318C7.63182 11.5136 7.79003 11.5935 7.99384 11.5929C8.49437 11.5918 8.99434 11.5924 9.51232 11.5924C9.51232 13.1851 9.51232 14.761 9.51232 16.3611C9.42055 16.3611 9.33666 16.3611 9.2522 16.3611C7.6915 16.3611 6.13023 16.3549 4.56952 16.3628C3.0105 16.3707 1.82646 15.6689 0.922236 14.4464C0.43353 13.7851 0.145824 13.0349 0.0405377 12.2165C0.0354705 12.1766 0.0140756 12.1389 0 12.1C0.00168908 11.8422 0.00168901 11.5845 0.00168901 11.3267Z" fill="white"/>
</svg>
