<svg width="24" height="25" viewBox="0 0 24 25" fill="none" xmlns="http://www.w3.org/2000/svg">
<path d="M12 22.2149C6.47967 22.2088 2.00606 17.7352 2 12.2149V12.0149C2.10993 6.51939 6.63459 2.14282 12.1307 2.21574C17.6268 2.28867 22.0337 6.78375 21.9978 12.2802C21.9619 17.7767 17.4966 22.2138 12 22.2149ZM11.984 20.2149H12C16.4167 20.2104 19.9942 16.6276 19.992 12.2109C19.9898 7.79415 16.4087 4.21487 11.992 4.21487C7.57528 4.21487 3.99421 7.79415 3.992 12.2109C3.98979 16.6276 7.56729 20.2104 11.984 20.2149ZM13 18.2149H11V16.2149H13V18.2149ZM13 15.2149H11C10.9684 13.9125 11.6461 12.6957 12.77 12.0369C13.43 11.5309 14 11.0949 14 10.2149C14 9.11029 13.1046 8.21486 12 8.21486C10.8954 8.21486 10 9.11029 10 10.2149H8V10.1249C8.01608 8.6958 8.79333 7.38387 10.039 6.68326C11.2846 5.98265 12.8094 5.99981 14.039 6.72826C15.2685 7.45671 16.0161 8.7858 16 10.2149C15.9284 11.2939 15.3497 12.2751 14.44 12.8599C13.6177 13.3761 13.0847 14.2477 13 15.2149Z" fill="#E8EAF6"/>
</svg>
